<?xml version="1.0" standalone="no"?>
<!DOCTYPE svg PUBLIC "-//W3C//DTD SVG 20010904//EN"
 "http://www.w3.org/TR/2001/REC-SVG-20010904/DTD/svg10.dtd">
<svg version="1.0" xmlns="http://www.w3.org/2000/svg"
 width="457.000000pt" height="810.000000pt" viewBox="0 0 457.000000 810.000000"
 preserveAspectRatio="xMidYMid meet">
<metadata>
Created by potrace 1.16, written by Peter Selinger 2001-2019
</metadata>
<g transform="translate(0.000000,810.000000) scale(0.100000,-0.100000)"
fill="#000000" stroke="none">
<path d="M1 6908 c0 -1123 1 -1197 18 -1258 18 -63 53 -152 92 -236 10 -22 19
-50 19 -62 0 -11 5 -24 10 -27 6 -3 10 -16 10 -28 0 -12 7 -35 16 -52 21 -39
38 -203 23 -222 -7 -8 -9 -32 -6 -59 3 -29 -1 -60 -9 -81 -11 -25 -13 -54 -8
-107 l7 -74 -39 -17 c-22 -9 -45 -20 -53 -24 -8 -4 -25 -28 -39 -55 -18 -34
-27 -44 -33 -34 -5 7 -9 -421 -9 -951 0 -883 1 -963 16 -957 14 6 15 -1 9 -51
-4 -32 -11 -66 -16 -75 -5 -10 -9 -551 -9 -1277 l0 -1261 2285 0 2285 0 -1
1948 c-1 1071 -4 1937 -6 1925 -5 -27 -17 -28 -57 -8 -21 11 -31 12 -36 5 -4
-7 -19 4 -39 28 -22 29 -31 51 -31 78 -1 22 -8 57 -16 79 -9 22 -20 56 -26 76
-14 53 -113 159 -147 159 -27 0 -41 12 -74 63 -17 26 -22 28 -57 22 -35 -6
-40 -4 -64 28 -32 42 -33 64 -3 114 31 55 109 163 116 163 4 0 14 15 23 33 54
105 58 137 20 137 -12 0 -24 -11 -32 -30 -7 -16 -16 -30 -21 -30 -5 0 -9 -6
-9 -13 0 -7 -25 -49 -55 -94 -30 -46 -55 -87 -55 -92 0 -18 -29 -32 -54 -25
-21 5 -26 12 -26 39 0 21 9 44 24 62 34 40 113 177 137 237 12 28 29 67 39 86
26 50 29 84 8 88 -12 2 -18 -3 -18 -16 0 -10 -9 -27 -19 -36 -11 -10 -29 -41
-41 -69 -12 -28 -38 -71 -56 -96 -19 -24 -34 -48 -34 -53 0 -5 -13 -37 -30
-72 -25 -55 -34 -64 -60 -68 -54 -8 -64 40 -20 101 27 39 30 76 5 76 -20 0
-42 -34 -64 -97 -12 -35 -45 -37 -66 -4 -12 18 -14 32 -6 65 5 23 7 51 4 62
-3 12 -1 24 5 28 15 9 62 194 62 244 0 38 -1 40 -16 25 -9 -9 -22 -42 -29 -74
-24 -105 -100 -372 -127 -444 -7 -20 -25 -51 -39 -69 -22 -27 -31 -33 -52 -27
-21 5 -26 15 -37 70 -7 36 -9 82 -5 104 5 30 1 50 -14 80 -41 81 -56 63 -64
-79 -4 -62 -2 -120 4 -140 16 -57 24 -269 10 -269 -7 0 -24 -9 -38 -20 -15
-12 -41 -20 -62 -20 -29 0 -40 -6 -56 -30 -23 -35 -38 -37 -67 -10 -20 18 -20
23 -8 59 12 36 11 43 -11 88 -20 39 -24 63 -24 131 1 50 -3 82 -10 82 -5 0
-19 7 -30 16 -19 14 -20 27 -21 292 -1 152 -4 286 -6 296 -5 20 -66 86 -80 86
-4 0 -8 9 -8 21 0 14 -11 25 -37 35 -21 9 -52 29 -70 46 -17 17 -46 33 -64 37
-35 7 -41 15 -75 99 -9 23 -23 42 -30 42 -22 0 -26 -42 -9 -84 25 -60 66 -206
71 -256 3 -25 2 -70 -3 -100 -8 -52 -10 -55 -40 -58 -28 -3 -32 0 -38 27 -4
17 -11 33 -16 36 -5 4 -9 21 -9 40 0 62 -30 102 -65 89 -11 -5 -13 -17 -9 -52
6 -59 24 -121 41 -147 7 -11 13 -25 13 -32 0 -13 57 -110 78 -131 6 -7 12 -17
12 -20 0 -4 12 -13 28 -19 39 -18 58 -56 76 -152 19 -98 19 -104 6 -96 -5 3
-18 -10 -27 -30 -17 -35 -17 -37 1 -50 15 -12 17 -22 12 -58 -4 -24 -2 -56 3
-70 7 -17 7 -27 1 -27 -6 0 -10 -7 -10 -15 0 -8 -4 -15 -9 -15 -16 0 -22 -38
-13 -77 6 -21 13 -57 16 -79 5 -36 3 -42 -14 -47 -16 -4 -20 -12 -18 -39 2
-18 7 -36 11 -39 5 -3 9 -27 9 -53 0 -34 5 -53 20 -68 18 -18 18 -23 7 -69 -7
-27 -16 -49 -19 -49 -4 0 -20 -33 -36 -72 -15 -40 -41 -95 -57 -122 -15 -27
-31 -61 -34 -77 -7 -37 -30 -58 -39 -35 -7 19 15 106 27 106 4 0 10 13 14 29
3 16 13 35 21 42 8 6 14 22 14 35 0 12 7 29 15 37 12 13 12 17 -3 29 -29 25
-52 29 -52 10 0 -23 -38 -64 -53 -59 -7 2 -14 21 -17 42 -3 21 -11 41 -19 43
-10 3 -12 -1 -9 -16 4 -12 0 -26 -8 -33 -17 -14 -21 -4 -28 66 -2 28 -12 95
-20 150 -21 140 -20 207 4 252 15 28 20 57 20 108 0 53 7 88 25 136 38 95 46
136 29 150 -20 17 -41 -4 -55 -55 -6 -22 -18 -54 -26 -69 -13 -27 -15 -28 -27
-11 -11 14 -11 24 -1 48 20 49 26 178 10 200 -27 36 -42 12 -47 -77 -3 -46
-11 -93 -17 -103 -8 -14 -10 12 -11 109 l0 128 -32 -3 c-42 -4 -47 -24 -41
-160 5 -94 4 -108 -10 -108 -19 0 -32 40 -48 153 l-12 88 -31 -3 c-31 -3 -31
-3 -30 -63 1 -33 8 -82 18 -108 20 -60 22 -187 2 -187 -26 0 -36 26 -30 73 6
43 5 45 -14 40 -14 -3 -22 1 -27 16 -8 26 -17 26 -38 3 -13 -14 -18 -48 -23
-135 -4 -65 -11 -120 -17 -124 -19 -12 -27 25 -27 132 -1 80 -5 115 -15 129
-12 16 -17 17 -30 6 -14 -12 -16 -33 -13 -132 2 -65 0 -118 -5 -118 -9 0 2
-51 14 -65 13 -14 11 -42 -4 -48 -29 -11 -69 6 -90 39 -12 19 -25 34 -29 34
-9 0 8 -49 23 -66 6 -7 4 -16 -6 -24 -8 -7 -15 -8 -15 -3 0 6 -11 8 -25 5 -20
-3 -24 -9 -20 -23 5 -15 1 -19 -15 -19 -15 0 -20 5 -17 14 6 15 -33 35 -68 34
-33 0 -137 -29 -157 -43 -17 -12 -16 -13 17 -19 19 -4 51 -16 69 -27 26 -15
46 -18 97 -15 71 4 109 14 109 27 0 14 47 10 53 -4 3 -8 1 -20 -4 -28 -6 -10
-9 -10 -9 -1 0 20 -26 14 -46 -13 -13 -18 -24 -23 -41 -19 -27 7 -30 -12 -9
-59 21 -49 26 -76 11 -71 -14 6 -35 47 -35 69 0 8 -15 21 -32 28 -28 12 -36
12 -55 -1 -18 -11 -21 -18 -13 -32 13 -24 13 -77 0 -85 -5 -3 -10 3 -10 15 0
13 -5 20 -12 17 -16 -5 -12 -67 6 -122 8 -22 12 -43 9 -47 -7 -13 -23 -9 -23
6 0 8 -9 24 -20 37 l-20 24 6 -30 c4 -16 13 -44 20 -60 13 -27 12 -35 -6 -70
l-20 -39 0 72 c0 96 -16 98 -35 5 -10 -48 -25 -40 -25 11 0 24 -5 46 -11 48
-9 3 -9 9 0 25 6 12 11 34 11 48 0 16 12 38 30 57 17 16 30 34 30 39 0 16 -49
9 -59 -8 -9 -15 -10 -11 -11 17 0 20 -4 40 -10 46 -5 5 -6 24 0 49 14 60 13
67 -10 60 -16 -5 -20 -2 -20 15 0 13 -5 20 -13 18 -7 -3 -14 -28 -17 -59 -5
-49 -6 -52 -18 -32 -6 12 -12 32 -12 45 0 29 55 87 63 66 4 -9 6 -9 6 -1 1 7
-7 17 -18 22 -14 8 -23 5 -40 -10 -11 -11 -21 -26 -21 -33 0 -8 -7 -16 -15
-20 -23 -8 -18 13 11 56 29 42 24 67 -6 31 -22 -28 -45 -31 -35 -5 4 9 10 26
13 37 4 16 1 15 -17 -7 -11 -14 -21 -31 -21 -37 0 -6 -7 -11 -15 -11 -10 0
-15 12 -17 38 -1 36 -1 36 -5 5 -2 -18 -8 -33 -13 -33 -4 0 -5 -39 -2 -87 3
-58 2 -84 -5 -80 -6 4 -19 -5 -28 -20 -17 -25 -18 -26 -31 -8 -8 10 -14 28
-14 39 0 28 -46 126 -60 126 -13 0 -13 -47 -1 -55 6 -3 13 -26 17 -51 5 -34 3
-48 -7 -55 -27 -17 -39 -9 -39 25 0 18 -7 47 -15 62 -8 16 -15 48 -15 71 0 46
17 64 73 77 17 4 31 16 37 31 10 27 16 28 227 29 44 1 84 4 88 8 4 4 29 4 56
1 45 -5 49 -4 58 21 6 14 16 26 23 26 15 0 19 166 4 188 -6 11 -35 13 -120 11
-61 -2 -116 0 -122 4 -6 3 -14 3 -18 -1 -14 -13 -150 -1 -169 16 -18 16 -50
22 -127 25 -44 2 -45 1 -42 -27 5 -43 -6 -76 -24 -76 -13 0 -15 10 -13 48 5
91 0 140 -16 146 -23 8 -43 -49 -47 -134 -3 -49 -11 -91 -26 -121 -54 -117
-65 -158 -58 -230 5 -46 4 -69 -3 -69 -6 0 -11 9 -11 20 0 10 -9 24 -19 30
-16 8 -19 17 -14 46 3 20 0 45 -7 59 -10 19 -10 30 -1 54 9 21 10 35 2 49 -6
12 -11 36 -11 54 0 53 32 212 47 229 7 8 13 21 13 27 0 6 9 14 20 17 11 3 20
14 20 23 1 9 8 33 18 53 15 32 20 35 41 27 43 -16 51 -5 51 73 0 48 5 80 17
99 16 28 16 29 -8 49 -13 11 -30 20 -38 21 -7 0 -11 6 -8 14 3 8 0 20 -8 26
-10 8 -18 5 -34 -16 -12 -15 -21 -30 -21 -34 0 -4 -7 -11 -17 -14 -17 -7 -59
25 -68 53 -3 9 -34 36 -69 59 -54 37 -66 50 -76 87 -26 92 30 250 75 213 37
-29 65 -62 65 -74 0 -9 15 -12 50 -11 l50 2 -2 40 c-1 63 13 157 28 180 7 11
13 22 13 25 -1 37 56 100 92 100 20 0 36 12 66 53 51 66 58 93 32 121 -19 20
-21 20 -30 4 -14 -25 -64 -23 -90 3 -16 16 -20 28 -14 55 5 29 16 41 28 32 9
-7 37 27 37 44 0 10 4 17 8 14 13 -8 4 105 -12 159 -9 28 -16 62 -16 78 0 15
-4 27 -9 27 -11 0 -26 66 -23 98 2 18 -3 24 -28 28 -36 8 -39 30 -5 46 35 16
31 28 -10 28 -19 0 -35 5 -35 10 0 6 7 10 15 10 8 0 15 5 15 10 0 6 6 10 13
10 7 0 29 9 50 20 38 21 87 27 87 11 0 -5 17 -22 39 -38 32 -23 36 -30 25 -41
-20 -19 -17 -49 7 -73 11 -11 29 -51 39 -87 12 -44 28 -75 45 -89 30 -27 85
-31 85 -8 0 9 6 18 14 21 11 4 9 14 -9 47 -16 28 -21 45 -14 53 6 8 5 14 -6
18 -8 3 -15 10 -15 16 0 16 60 2 83 -18 16 -14 17 -13 17 10 0 14 -7 31 -15
38 -12 10 -15 10 -15 -1 0 -20 -29 23 -30 44 0 9 -4 17 -9 17 -5 0 -11 8 -15
18 -6 17 -39 77 -68 122 -26 41 -32 70 -14 70 20 0 20 19 1 44 -17 22 -11 36
15 36 27 0 35 18 35 80 0 66 -22 90 -81 90 -28 0 -35 3 -27 11 7 7 40 11 77
10 52 -1 66 2 66 13 0 8 9 17 19 21 11 3 22 12 25 20 3 8 12 15 21 15 17 0 21
25 5 35 -23 14 5 25 62 25 50 0 59 3 54 15 -6 17 29 36 52 28 6 -3 12 0 12 7
0 6 4 9 9 6 5 -3 11 0 14 8 4 9 18 13 41 11 43 -4 59 -13 53 -30 -7 -16 28
-45 55 -45 11 0 27 8 34 18 13 16 13 16 14 -3 0 -26 58 -49 111 -46 42 2 54
-15 39 -53 -11 -29 -3 -38 21 -25 17 8 19 6 19 -19 0 -29 19 -45 65 -55 l20
-5 -20 -1 c-34 -3 -58 -27 -47 -48 5 -10 13 -41 17 -70 l7 -51 59 -7 c32 -4
59 -11 59 -16 0 -5 -6 -9 -14 -9 -8 0 -17 -12 -21 -27 -3 -16 -15 -38 -26 -49
-13 -14 -17 -24 -10 -28 6 -4 3 -14 -9 -26 -11 -11 -20 -29 -20 -39 0 -11 -4
-21 -10 -23 -6 -2 -6 -9 0 -18 7 -12 14 -9 36 15 14 16 27 33 28 39 3 20 17
36 27 31 5 -3 6 0 4 8 -10 24 24 86 62 111 21 14 41 22 45 18 9 -9 -8 -70 -23
-87 -5 -5 -9 -18 -9 -30 0 -11 -12 -38 -25 -60 -14 -22 -25 -47 -25 -56 0 -9
-8 -23 -18 -32 -13 -12 -17 -26 -14 -49 3 -20 0 -35 -9 -42 -21 -16 -82 -143
-75 -155 4 -6 -1 -18 -11 -28 -14 -14 -17 -28 -13 -63 7 -59 15 -70 52 -70 32
0 98 -34 98 -51 0 -5 9 -9 20 -9 15 0 20 -7 20 -25 0 -18 5 -25 19 -25 10 0
24 -6 30 -14 6 -7 24 -16 39 -19 16 -3 34 -17 42 -32 13 -24 12 -31 -12 -78
-15 -29 -29 -71 -32 -94 -5 -36 -3 -44 21 -62 l26 -21 -20 -23 c-21 -22 -21
-47 0 -47 7 0 23 -12 36 -25 22 -24 24 -25 52 -8 35 21 40 32 53 123 9 71 25
93 60 84 14 -3 29 -10 32 -15 8 -14 34 -11 50 6 11 10 21 12 32 6 9 -5 24 -5
38 1 19 9 30 5 65 -23 24 -19 54 -35 68 -36 13 -1 28 -8 32 -15 6 -9 13 -10
33 0 83 39 74 39 107 1 17 -19 44 -63 59 -99 23 -51 34 -66 56 -72 15 -4 32
-14 36 -23 13 -21 28 -19 28 5 0 11 -4 20 -9 20 -5 0 -13 10 -17 23 -3 12 -13
30 -22 40 -13 15 -13 17 0 17 8 0 22 -8 32 -19 21 -23 126 -27 126 -5 0 9 12
14 35 14 28 0 38 -5 47 -25 9 -21 8 -27 -7 -38 -13 -11 -16 -21 -10 -46 6 -27
16 -37 53 -53 36 -16 52 -19 73 -11 28 11 61 1 40 -11 -6 -4 -11 -18 -11 -32
0 -18 5 -24 23 -24 24 0 92 -22 103 -33 4 -4 19 -7 33 -7 29 0 45 19 55 65 11
48 72 85 139 85 72 0 112 -9 134 -29 10 -9 25 -17 33 -18 44 -6 81 -20 103
-39 13 -11 39 -26 57 -33 19 -6 42 -18 51 -27 12 -11 27 -14 44 -10 36 9 82
-20 89 -56 6 -29 7 -30 48 -23 24 4 46 9 51 12 4 2 7 479 7 1059 l0 1054 -24
0 c-29 0 -44 33 -26 55 9 11 17 12 31 4 18 -9 19 0 19 366 l0 375 -972 0
c-690 0 -982 -3 -1007 -11 -58 -18 -98 -38 -79 -38 11 -1 15 -6 12 -16 -7 -18
-31 -20 -37 -2 -3 9 -9 9 -26 -1 -13 -7 -80 -15 -171 -19 -136 -6 -150 -5
-150 11 0 15 -2 15 -24 1 -18 -12 -37 -14 -77 -10 -67 8 -241 45 -254 55 -22
16 -55 18 -55 4 0 -17 -12 -18 -28 -2 -9 9 -15 9 -24 0 -9 -9 -7 -13 5 -18 44
-16 2 -25 -75 -15 -5 1 -8 7 -8 15 0 9 7 12 19 9 10 -3 22 0 25 6 4 6 -1 12
-11 13 -10 1 7 4 37 8 30 4 -333 7 -807 8 l-863 2 1 -1192z m3835 106 c4 -16
2 -29 -5 -33 -13 -8 -21 -131 -12 -185 l6 -37 21 20 c12 11 24 25 26 31 2 7
16 13 31 13 21 2 27 7 27 24 0 12 5 25 10 28 6 3 10 31 10 62 0 73 9 65 11
-10 2 -64 16 -84 48 -68 11 6 26 10 33 9 9 -2 14 16 16 65 2 37 7 67 11 67 9
0 21 -58 21 -107 0 -26 4 -33 19 -33 11 0 23 -4 26 -10 3 -5 -1 -10 -9 -10 -9
0 -16 -4 -16 -10 0 -6 18 -7 43 -4 32 5 47 2 59 -10 9 -9 19 -16 22 -16 3 0
24 -8 46 -17 35 -16 40 -22 40 -51 0 -20 6 -35 15 -38 12 -5 15 -25 15 -90 0
-46 -4 -84 -8 -84 -5 0 -16 -15 -25 -32 -10 -18 -28 -51 -42 -73 -13 -22 -28
-50 -34 -62 -5 -11 -15 -24 -20 -28 -23 -13 -10 -30 25 -32 71 -4 89 -85 32
-140 -31 -30 -84 -58 -100 -55 -5 1 -8 -2 -8 -7 0 -5 -14 -11 -30 -15 -63 -12
-65 -114 -4 -179 34 -36 35 -38 23 -75 -15 -47 -160 -194 -213 -216 -33 -14
-44 -14 -68 -4 l-28 13 0 103 c0 71 -5 112 -15 131 -15 29 -18 98 -5 116 3 6
15 33 25 60 23 64 30 72 66 80 34 8 52 40 37 68 -5 9 -5 17 -1 17 10 0 -40 45
-52 46 -5 0 -18 4 -28 9 -10 4 -27 1 -42 -9 -16 -11 -25 -12 -25 -5 0 6 -10
22 -22 34 -13 12 -31 31 -40 43 -10 12 -27 22 -38 22 -13 0 -18 5 -14 15 4 8
1 22 -5 29 -9 10 -9 16 -1 21 8 5 5 15 -7 33 -15 22 -18 44 -16 121 2 83 5 97
28 127 14 18 25 39 25 48 0 8 6 21 13 28 16 16 33 52 36 79 0 5 5 8 10 5 5 -3
9 13 9 37 0 31 -2 37 -8 22 -7 -17 -9 -16 -11 10 -7 96 -4 120 12 109 5 -3 9
2 9 10 0 28 39 19 46 -10z m-322 -455 c48 -22 42 -87 -13 -126 -38 -28 -85
-29 -111 -3 -29 29 -25 63 12 104 34 39 66 46 112 25z m-960 -438 c-16 -28
-16 -30 5 -59 28 -40 27 -58 -10 -94 -20 -21 -29 -38 -25 -51 4 -18 1 -19 -42
-12 -26 4 -50 9 -54 12 -11 6 -10 41 2 48 6 3 10 22 10 40 0 29 4 36 25 41 21
5 25 12 25 40 0 19 -5 34 -11 34 -5 0 -7 5 -4 10 4 6 10 8 14 6 4 -3 13 -1 21
5 8 5 25 9 38 9 23 0 23 0 6 -29z m942 -182 c26 -28 20 -53 -23 -94 -38 -37
-43 -39 -91 -29 -35 7 -45 37 -31 88 6 24 17 35 41 42 53 18 83 16 104 -7z
m906 -312 c9 -8 22 -34 28 -60 7 -25 17 -45 24 -44 6 1 12 -10 14 -25 2 -16 9
-28 15 -28 7 0 5 -5 -4 -10 -11 -6 -28 -3 -55 10 -33 16 -47 17 -94 9 -30 -6
-61 -18 -67 -26 -7 -9 -16 -14 -19 -10 -18 18 6 127 27 127 5 0 9 5 9 11 0 5
8 21 18 34 19 28 75 34 104 12z m-967 -1423 c0 -59 -6 -90 -22 -124 -11 -25
-24 -56 -27 -70 -4 -14 -11 -34 -15 -45 -26 -65 -52 -138 -66 -190 -17 -62
-52 -156 -87 -235 -11 -25 -23 -54 -28 -65 -5 -11 -17 -40 -28 -65 -11 -25
-30 -66 -41 -92 -12 -26 -21 -50 -21 -53 0 -3 -8 -25 -19 -48 -10 -23 -28 -69
-41 -102 -13 -33 -29 -74 -36 -90 -38 -90 -93 -283 -113 -397 -9 -51 -29 -106
-63 -176 -11 -21 -13 -21 -30 -5 -11 10 -18 30 -18 52 0 30 9 46 52 91 52 55
52 55 50 115 -7 197 -5 231 17 305 12 41 28 89 35 105 8 17 26 59 41 95 44
102 85 193 96 214 41 73 138 326 163 427 9 35 24 75 34 89 10 14 26 48 37 75
10 28 26 61 37 74 10 13 18 30 18 37 0 7 10 20 23 29 12 8 22 23 23 33 1 9 2
37 3 60 1 30 5 42 14 39 8 -3 12 -28 12 -83z m497 64 c32 -30 45 -67 53 -153
4 -38 9 -80 12 -92 8 -35 -18 -28 -50 12 -28 36 -57 46 -57 21 0 -8 6 -16 13
-19 8 -3 20 -26 27 -51 7 -26 17 -49 21 -52 16 -10 10 -74 -6 -74 -11 0 -15
12 -16 48 -1 42 -2 44 -9 17 -4 -16 -8 -44 -9 -62 0 -17 -6 -44 -12 -60 l-11
-28 -22 28 c-21 26 -46 36 -46 18 0 -5 7 -14 15 -21 8 -6 17 -21 21 -33 6 -20
14 -31 43 -63 19 -21 6 -61 -22 -66 -30 -6 -47 0 -47 18 0 20 -36 75 -43 67
-4 -3 -7 2 -7 13 0 11 -6 29 -14 40 -22 31 -7 164 22 204 13 17 20 34 18 39
-3 5 1 28 9 52 11 29 12 46 5 53 -7 7 -10 4 -10 -9 0 -11 -8 -29 -16 -40 -14
-19 -15 -16 -8 30 4 27 12 61 18 75 14 34 78 110 92 110 6 0 22 -10 36 -22z
m-1612 -47 c0 -11 5 -23 10 -26 8 -5 7 -12 -1 -22 -7 -8 -12 -34 -10 -58 2
-33 -3 -49 -18 -64 -32 -32 -24 -53 23 -55 20 -1 21 -5 21 -143 0 -89 -4 -143
-10 -143 -5 1 -9 14 -9 30 2 37 -2 37 -33 4 -22 -24 -26 -25 -39 -12 -10 10
-15 35 -15 73 0 32 -7 78 -15 101 -16 46 -17 40 41 203 9 24 13 51 10 59 -7
19 16 72 32 72 7 0 13 -9 13 -19z m1972 -388 c41 -18 52 -39 52 -102 0 -24 -7
-39 -24 -53 -61 -47 -91 -83 -119 -136 -59 -114 -135 -245 -159 -270 -20 -22
-71 -98 -82 -124 -6 -13 -22 -41 -35 -63 -14 -22 -28 -47 -31 -55 -20 -47 -60
-122 -90 -170 -19 -30 -41 -75 -50 -100 -9 -25 -20 -53 -25 -62 -5 -10 -9 -25
-9 -35 0 -22 -18 -78 -42 -133 -40 -88 -60 -156 -73 -245 -14 -95 -58 -233
-89 -279 -10 -16 -22 -40 -26 -55 -5 -14 -16 -44 -24 -66 -8 -22 -15 -64 -16
-92 0 -54 -21 -122 -50 -159 -9 -12 -24 -48 -34 -80 -10 -33 -25 -75 -32 -94
-7 -19 -16 -50 -19 -68 -4 -18 -12 -38 -18 -45 -17 -18 -44 -103 -56 -173 -5
-33 -21 -80 -35 -105 -14 -24 -45 -82 -68 -129 -23 -47 -50 -96 -59 -109 -10
-12 -21 -38 -25 -57 -3 -19 -10 -34 -14 -34 -4 0 -11 -15 -14 -34 -4 -19 -12
-37 -19 -39 -9 -3 -9 -7 0 -17 7 -7 8 -19 3 -29 -18 -36 -29 -68 -34 -99 -3
-19 -13 -49 -22 -68 -11 -22 -14 -47 -11 -69 5 -33 -6 -49 -16 -22 -3 8 -13 3
-29 -14 -16 -18 -30 -24 -38 -19 -7 5 -18 6 -24 4 -7 -3 -25 8 -42 23 -37 34
-36 61 4 142 21 43 27 63 20 80 -5 15 -3 38 6 64 8 23 10 43 5 45 -5 2 -3 13
4 25 7 12 12 36 11 52 -1 17 3 35 8 42 5 7 6 18 2 24 -15 25 -2 129 36 289 22
91 42 182 45 202 3 22 23 59 50 94 25 32 45 68 45 81 0 13 4 23 8 23 17 0 32
69 32 146 0 92 17 147 53 177 30 26 47 57 47 89 0 13 6 35 14 50 8 15 17 42
21 60 4 18 11 38 14 43 4 6 16 33 26 60 10 28 22 54 26 59 5 6 9 16 9 24 0 7
6 20 14 27 7 8 17 36 20 62 4 26 14 63 22 80 11 24 12 38 4 52 -5 11 -10 29
-10 40 0 50 -119 -28 -215 -141 -75 -89 -148 -103 -218 -43 -22 19 -44 35 -48
35 -5 0 -11 15 -14 34 -5 27 -2 39 16 60 12 14 28 26 35 26 7 0 76 32 153 70
78 39 148 70 155 70 7 0 19 7 26 15 7 8 17 15 23 15 12 0 145 88 153 101 3 5
15 9 27 9 37 1 62 31 86 105 24 73 118 269 166 346 15 24 45 65 66 90 21 25
43 57 49 70 16 36 48 88 89 144 20 28 44 62 54 77 9 14 24 29 34 32 10 3 28
21 40 38 13 18 40 51 60 72 21 22 48 53 61 70 24 33 74 63 106 65 11 1 37 -7
58 -16z m-2392 -180 c0 -12 -4 -25 -10 -28 -5 -3 -10 -24 -10 -46 0 -38 -41
-119 -61 -119 -5 0 -9 -13 -9 -30 0 -24 -7 -34 -40 -52 -22 -13 -40 -26 -40
-31 0 -4 -21 -50 -46 -103 -37 -76 -50 -94 -63 -88 -9 3 -26 9 -38 11 -27 6
-31 44 -8 63 12 10 15 10 15 0 0 -10 3 -10 15 0 8 7 15 20 15 29 0 21 79 118
103 126 24 9 21 30 -5 42 -21 9 -21 10 15 50 21 22 37 51 37 64 0 21 1 22 13
5 12 -16 17 -17 38 -6 35 19 37 26 32 91 -4 41 -2 64 7 74 12 15 15 14 26 -7
8 -13 13 -33 14 -45z m-454 -525 c4 -7 -2 -18 -14 -26 -28 -18 -27 -40 1 -72
21 -23 38 -32 127 -65 43 -16 49 -32 16 -41 -32 -8 -113 3 -121 17 -4 5 -22 9
-42 9 -69 0 -94 53 -50 107 13 15 27 40 31 56 7 28 38 38 52 15z m-409 -150
c3 -31 12 -53 28 -68 l24 -22 -22 -34 c-12 -19 -30 -34 -39 -34 -27 0 -25 -70
1 -77 19 -5 72 -71 84 -107 4 -10 -2 -44 -14 -77 -19 -50 -26 -60 -56 -70 -48
-16 -110 -6 -136 22 -63 68 -78 167 -33 216 32 35 32 44 0 74 -33 31 -52 68
-70 135 -20 77 -8 104 46 104 50 0 135 26 152 48 11 13 14 10 21 -24 5 -21 11
-60 14 -86z m1275 -50 c4 -7 8 -25 8 -41 0 -23 -7 -31 -47 -48 -101 -45 -239
-113 -273 -134 -19 -11 -79 -33 -132 -48 -53 -15 -119 -40 -148 -57 -28 -16
-55 -30 -61 -30 -15 0 -58 -53 -59 -72 0 -10 13 -22 34 -29 19 -7 37 -20 39
-29 4 -16 -14 -50 -27 -50 -4 0 -21 -17 -39 -37 -18 -20 -54 -61 -82 -90 -27
-29 -64 -68 -81 -87 -18 -18 -43 -36 -58 -40 -36 -9 -112 -62 -168 -118 -52
-51 -71 -58 -100 -31 -35 31 -17 94 46 157 37 36 136 171 136 184 0 4 17 28
38 53 20 26 49 67 64 93 15 25 49 61 74 79 26 17 52 38 58 46 58 73 98 104
162 126 41 14 87 40 114 63 30 26 59 41 87 45 54 9 123 32 191 64 98 46 153
61 185 52 17 -5 34 -14 39 -21z m628 -850 c78 -94 97 -132 79 -165 -15 -27
-40 -29 -77 -6 -40 26 -49 42 -56 97 -4 38 -2 54 11 68 19 21 28 22 43 6z
m-1471 -741 c7 -13 10 -36 7 -52 -2 -17 -5 -35 -5 -42 -1 -16 -42 -54 -52 -48
-4 3 -18 -8 -31 -24 -21 -27 -31 -31 -103 -38 -101 -11 -110 -9 -128 30 -16
33 -8 50 20 40 7 -3 13 0 13 6 0 7 8 15 18 19 35 15 128 72 161 100 44 36 83
40 100 9z m1669 -1059 c3 -22 -2 -28 -32 -39 -19 -7 -37 -21 -40 -32 -3 -13
-10 -18 -20 -14 -10 4 -16 1 -16 -8 0 -16 -30 -35 -55 -35 -9 0 -23 -7 -31
-15 -22 -21 -37 -19 -68 10 -15 14 -23 25 -18 25 5 0 12 14 16 30 3 17 9 29
13 28 5 -2 8 0 8 4 0 4 9 14 20 22 18 14 19 15 2 16 -10 0 -16 4 -12 9 7 12
64 6 77 -7 8 -8 100 17 115 32 15 14 38 0 41 -26z"/>
<path d="M1940 8084 c95 -20 330 -34 403 -23 239 35 232 36 -128 37 -314 0
-335 -1 -275 -14z"/>
<path d="M1050 5333 c0 -5 5 -14 12 -21 9 -9 9 -15 0 -24 -32 -32 13 -128 60
-128 16 0 19 -5 14 -23 -4 -18 1 -27 25 -41 33 -19 64 -15 56 8 -5 11 5 14 46
13 70 -1 82 7 59 41 -9 15 -25 35 -34 44 -10 10 -18 31 -18 46 0 20 -9 35 -32
52 -21 15 -33 19 -36 12 -3 -9 -9 -9 -25 0 -12 6 -32 12 -44 14 -12 1 -35 5
-52 9 -17 4 -31 3 -31 -2z"/>
</g>
</svg>
